<svg version="1.1" id="Layer_1" xmlns="http://www.w3.org/2000/svg" x="0" y="0" viewBox="0 0 945.4 563.5" style="enable-background:new 0 0 945.4 563.5" xml:space="preserve"><style>.st1{fill:#2a3043}.st2{fill:#d0d2d3}.st3{fill:#8fd4d6}.st4{fill:#6aa046}.st5{fill:#c7c6c5}.st6{fill:#2dbfcc}.st7{fill:#e9e8e9}.st8{fill:#324662}.st9{fill:#213a51}.st10{fill:#2e425f}.st11{fill:#25beca}.st12{fill:#f6f6f6}.st13{fill:#ebb12a}.st14{fill:#049fab}.st15{fill:#eaab25}.st16{fill:#a3a7aa}.st17{fill:#fff}</style><g id="XMLID_138_"><path id="XMLID_126_" style="fill:#5d5e5e" d="m745.8 88.7 15.6-12 16-17.9 9.8 11.9 11.7 11.7-2.3.8-7.2 16.8-14.3 14.7-8.7 1.3-18.8-6.2-15.3-5.1 3.3-7.8z"/><path id="XMLID_125_" class="st1" d="M161.7 541.5c-.2.3-.6.6-.7 1-2.3 9.3-9.2 8-16.1 7-.6-2.6-1.1-5.3-1.7-7.9 6.3 0 12.4-.1 18.5-.1z"/><path id="XMLID_124_" class="st1" d="M72.5 557.2c3-5.2 5.5-10.4.2-15.7 2.9-.2 5.8-.6 8.7.2-.1 2.5-.2 4.9-.2 7.4-.3 8.1-.5 8.3-8.7 8.1z"/><path id="XMLID_123_" class="st1" d="M130.8 541.1c2.1-3 .9-6.5 1.5-9.8 1 0 2-.2 2.4-1.3 10.8 2.7 21.1 1.1 31.2-3.3 1.5-.6 2.2-1.8 2.3-3.4 9.3 5.5 19.1 9.4 30.3 8 3-.4 6.2-.1 9.2.3 4.6.7 7.7 3 6.6 8.3-4.5 3.1-9.5 4.9-14.7 6.3-15 4-30.4 3-45.6 3.7-9.3.5-18.3 1.3-23.2-8.8z"/><path id="XMLID_122_" class="st2" d="M844.8 548.3c-3.4 1.2-6.8 1.5-10.4 1.5-77.6 0-155.2 0-232.8.1l-.3.1c0-.5.1-1 .1-1.6-.5-3.1.8-6.4-.9-9.4-.3-3.6-1.7-6.7-4.2-9.3.6-2.4 1.1-4.7 1.7-7.1 3.7-.7 8.7 1.3 10.3-4.3 1.2-4-2.2-5.2-4.4-7.1.9-6.5 1.6-13.1 2.7-19.6 1.9-10.5 1.6-21.3 4.9-31.5 1.1 2.6 1.2 5.8 4.8 6.5 3.8.7 5.4-2.1 7.5-4.4 1.4-1.5 2.7-3.1 4-4.6 1.6.8 3.2 1.6 4.7 2.4-.2 4.9 1.7 8.7 5.8 11.3 4.7 9.5 6.7 19.1 3.9 29.9-2 7.4 2.3 11.3 9.8 10.9 4.2.3 5.9-2.4 6.7-5.8 4.2-18.1 4.6-36.6 5-55 .1-2.7-1.2-3.7-3.8-3.5-5.1-2-10.5-1-15.7-2.1-1.4-1-2.9-2-4.3-3 2.4-6.3 1.7-7.4-6-9.9-5.8-7-11.7-14-17.5-21 4.2-38.5 9-77 10.6-115.8 6.8.3 8.9-3.1 8.3-9.5-.4-3.4.3-7 .5-10.5 21.1.1 42.1.1 63.2.2-2.6 22.2-4.2 44.4-3 66.8.2 3.2.5 5.3 4.3 6 7.7 1.6 15.2 4.1 23.1 4.4 3.7 18.9 7.9 37.6 13.7 56 3.3 10.4 2.9 20.8-2.2 30.8-6.4 4.9-12.6 10.1-17.3 16.8-2.1 2.9-4.3 6.3-2.2 9.7 2.4 3.7 6.3 2.1 9.6 1.1 11.3-3.3 20.2-10.2 27.8-18.9 1.4-1.6 2.4-4.3 5.9-4.2-.4 1.7-.7 3.1-1.1 4.4-2.1 7.1-5.2 14-5.3 21.6-.1 6.1 3 8.2 8.8 5.9 4.4-1.8 7.6-4.8 9.7-9.1 4.9-10.3 9.8-20.5 14.8-30.7 3.4-7 3.2-7.8-4.5-11.3.1-2.7.3-5.3.4-8 .8-21.4 2.8-42.7-.6-64 4.9-.2 6.7-2.8 6.4-7.7-.4-6.2.1-12.4-.1-18.6-.7-16.7 6.5-29.5 19.4-39.5 4.7-3.7 9.6-7.2 13.6-11.7 6 0 12 0 18 .1 9.7.1 13.7 4.3 14 13.9.1 4.9-1.2 9.9.9 14.6-.9 4.3-1.9 8.6-2.9 13.4-4.1-4.6-5.3-10.5-11.2-15 2.5 8.2 4.5 15.1 6.7 22.6-11.8-7.1-22-15.8-36.6-18.6 8.1 14.5 17.5 25.7 33.5 28.7 5.8 1.1 9.3 3.2 10.5 8.9-2.2 1.5 0 4.6-2.2 6.1-1.8-1-3.6-1.9-5.4-2.9-9.7-5.5-20-9.1-31.2-9.3-1.5 0-3.6-.5-4.3 1.5-.5 1.5.8 2.7 1.8 3.7 7.3 7.9 15.8 14.2 26.3 16.8 5.4 1.3 10.1 3.6 13.9 7.6-.1 3.1-.2 6.2-.4 9.3-10.1-4.2-20.2-8.5-31.5-7.9-1.3.1-3.2-.7-3.8 1-.5 1.6 1.2 2.5 2.1 3.4 9.7 9.8 21.1 17.2 33.5 23v12.4c-6.6-2.9-13-6.4-20.1-7.9-9.1-2-18.1-2.3-26.9 3.9 7.7 1.7 15.3 2.1 20.3 7.5 7.8 8.5 17.1 14.9 26.9 20.8v6.8c-6.2-1.7-12.2-3.8-18.6-4.5-8.7-1-16.9.4-25.1 5 13.5 11.1 28.1 18.1 43.7 23.3v4.7c-3.9.1-7.8.2-11.7.2-13.9 0-13.9 0-10.1 13.6.9 4.2 1.7 8.5 2.7 12.7 3.8 17.5 7.8 35.2 11.8 52.9z"/><path id="XMLID_261_" class="st3" d="M77.2 387.3c.1-35.2.1-70.4.1-105.6 0-5.6 1.5-9.8 7.7-10.9 28 0 56-.1 83.9-.1 11.4 0 14.1 2.8 14.1 14.4 0 49.7-.1 99.5.1 149.2 0 5.9-.3 11.3-5.7 15.2 9.6 3.8 10.8 5.6 10.8 15.4 0 2.9-.2 5.8 0 8.7.5 6.2-1.6 10.9-7.5 13.6-2.1.1-4.2.2-6.2.3h-31.2c-1 0-2-.1-3.1-.1h-16c-13.7 0-27.5.1-41.2.1-7.4-.9-10.3-3.9-10.6-11.1-.2-4.1.2-8.3-.1-12.4-.5-7.4 2.3-12.5 10.4-14.4-4.9-2.7-5.6-6.8-5.6-11.4.1-13.5-.1-26.9-.1-40.4.2-3.4.2-6.9.2-10.5zm27.6-105.8c17.8 3 35.7 3.7 53.7 2.7 10-.6 12.3 1 12.4 10.9.1 16.4-1.5 32.7-2.3 49-.9 18.7.3 37.3 1.2 55.9.2 4.9 1.1 9.8 1.7 14.7 3.3-11.3 3.3-22.7 3.9-34 1.8-30.3-2-60.4-2.2-90.7 0-5.6-4.3-9.8-10.2-10.5-19.5-2.4-38.8-.6-58.2 2zm4.6 165.8c.1-.2.1-.4.2-.6-4.7-.4-9.4-1-14.1-1.3-6.9-.5-10-3.6-9.2-10.3 1.6-13.2 1.2-26.4.9-39.7-.1-5.5-.9-11-2.8-16.6-1.5 2.5-1.7 5-2.1 7.4-2.4 17.3-1.3 34.7 0 52 .5 6.5 5.6 10.8 12.3 10.5 4.9-.3 9.8-.9 14.8-1.4z"/><path id="XMLID_118_" class="st4" d="M723.4 353.3c-7.9-.3-15.4-2.8-23.1-4.4-3.8-.8-4.1-2.8-4.3-6-1.2-22.4.4-44.6 3-66.8 2.7-18.5 12.6-32.7 27-44 11.4-3.6 23.3-3.5 34.9-4.5 16.4-1.4 32.3-4.5 47.9-9.7 2.6-.9 4.2-2.2 5.6-4.3 2.6.9 4.9-.5 7.3-.9 5.6 14.2 9.5 28.7 6.7 44.2-1.2 7.1-4.2 13.4-8.4 19.1-4 4.5-8.9 8-13.6 11.7-12.8 10-20 22.8-19.4 39.5.2 6.2-.2 12.4.1 18.6.3 4.9-1.4 7.5-6.4 7.7-2.5.1-4.9.3-7.4.4-16.5.5-33.2 1.2-49.9-.6z"/><path id="XMLID_117_" class="st4" d="M851.9 463.9c-15.6-5.1-30.2-12.1-43.7-23.3 8.2-4.6 16.4-5.9 25.1-5 6.4.7 12.5 2.8 18.6 4.5 8.4 4.1 16.6 8.6 24.8 14.4.3-5.3-.1-9.6-.9-13.8-.3-1.9-.8-3.1-3-2.8-7.5.9-14.1-2-20.9-4.5-9.7-5.9-19.1-12.3-26.9-20.8-5-5.5-12.6-5.8-20.3-7.5 8.9-6.2 17.8-5.9 26.9-3.9 7.1 1.6 13.5 5.1 20.1 7.9 6.9 4.8 13.8 9.5 21 14.5.4-4.1-.3-7.7-.9-11.3-1.7-11-1.7-11-12.3-13.6-2.6-.6-5.2-1.3-7.7-2-12.5-5.8-23.8-13.2-33.5-23-1-1-2.7-1.9-2.1-3.4.6-1.8 2.5-1 3.8-1 11.3-.6 21.4 3.7 31.5 7.9 5.3 3.5 10.6 7.1 16 10.7.7-2.5-.4-4.4-.7-6.5-1-6.7-1.8-13.5-11.4-12.4-1.1.1-2.3-.7-3.5-1.1-3.9-3.9-8.5-6.2-13.9-7.6-10.6-2.6-19.1-8.9-26.3-16.8-1-1.1-2.3-2.2-1.8-3.7.7-2 2.8-1.5 4.3-1.5 11.3.2 21.5 3.8 31.2 9.3 1.8 1 3.6 2 5.4 2.9 1.4 2 3.4 3.3 5.6 4.4.4.1.9.3 1.3.4-.2-.4-.3-.8-.5-1.3l-4.2-9.6c-1.2-5.7-4.7-7.9-10.5-8.9-16-3-25.4-14.2-33.5-28.7 14.5 2.9 24.8 11.5 36.6 18.6-2.2-7.5-4.3-14.4-6.7-22.6 5.8 4.4 7.1 10.4 11.2 15 1-4.8 2-9.1 2.9-13.4 1.8-6 3.4-12 8.1-16.6 1.1-1.1 2.7-2.5 4.4-1.6 1.6.9.4 2.6.3 4-.2 6.4-.8 12.9-.5 19.3.3 6.6-2.1 11.8-7.1 15.7-2.8 2.2-3.5 4.1-2 7.7 2.6 5.9 4.3 12.3 6.6 19.1 8-16.1 12.5-34 28.6-44.6-3.9 10.7-3.9 22-6.9 32.7-2.6 9.2-7.8 16.5-17.2 19.8-2.1.8-3.1 1.3-2.2 3.9 2.4 7 4.5 14.2 7.1 22.5 6.2-14.9 9.1-30.4 23.4-39-.7 17.6-1.3 35.2-16.5 47.5-1.9 1.5-2.7 2.7-2.1 5.1 1.8 7 3.5 14.1 5.2 21.4 6-10.4 11.4-20.8 14.2-32.3.2-1 .5-2 .8-3 2.4-8.8 10.4-15.9 10.2-24.8-.1-9-.7-18.2-.6-27.3 0-3.7-.1-7.5 1.3-11.1 6.3 4.5 7.8 9.5 8.9 29.8 2.3-1.8 4.1-3.9 6.4-4.9 3.9-1.7 1 1.4 1.4 2.3-.3.5-.7 1.1.1 1.5.1.1.6-.5.8-.7 5-2 9.5-5 14.9-6 1.6-.3 3.5-.8 4.6.8 1 1.6-.6 2.7-1.5 3.7-6 7.3-12.3 14.3-23 13.7-2-.1-3.1.7-3.9 2.3-1.9 3.6-3.8 7.2-6 11.3 11.8 0 23.1 1.6 34-2.7-10.7 10.7-22.9 17.7-38.6 15.8-2.5-.3-3.9.2-5.1 2.2-2.7 4.6-6.1 8.9-7 14.4-.1.5-.3.9-.4 1.4.5-.1.9-.1 1.4-.2 12.1-6.4 25.1-9.2 40.2-10.2-11.8 12.1-23.9 20.4-39.8 21.5-3.2.2-4.7 1.1-5.5 4.2-2.3 8.8-8.4 16.8-5.2 27.2 7-6.5 13.3-13.3 20.6-18.9 6.8-5.2 13.6-10.2 22-12.5 2.5-.7 4.9-.9 7.4-.8 2.5.1 3.5 1.1 2.1 3.5-8.9 15.2-19.4 29-36.2 36.3-3.5 1.5-7.1 2.8-10.8 2.6-6.2-.3-7.9 3-7.7 8.3h-3.7c-.4-1.7 1.1-4.6-2.8-4-8.2 1.4-16 .1-23.8-.8z"/><circle id="XMLID_116_" class="st5" cx="77.2" cy="551.7" r="10.9"/><circle id="XMLID_115_" class="st5" cx="117.8" cy="551.7" r="10.9"/><circle id="XMLID_114_" class="st5" cx="190.5" cy="551.7" r="10.9"/><path id="XMLID_113_" class="st3" d="M821.7 212.5c-2.4.5-4.7 1.9-7.3.9-.8-5.1-4.2-5.5-8.3-4.4-4.3 1.2-8.7 2.6-13 3.9-2.5.8-4.4.9-4.7-2.6-.7-9-1.5-18-2.3-26.9 4.6.1 9.1.3 13.7.3 2.9 0 5.1-1.1 4.1-4.5-2.7-10.3-1.6-20.3-.1-30.7.7-5.2.5-11.5-3.2-17.4-1.8 4.7-2.2 8.5-2.5 12.5-.6 7.3 1.5 14.4 1.4 21.6-.2 12.4-.5 12.6-12.2 11.2-.4-.1-.8-.1-1.2-.2-2.7-5.1-1.7-10.7-2.6-16.1-1-5.7-3.4-7.6-9.1-7-16.1 1.5-32.2 4.3-48.5 4.3.2-6.3 2.9-12.4 1.9-18.8-3.2 6.3-5.5 12.8-5.3 19.9-6.6.1-13.1 2.6-19.7 1.1-2-9-5.8-17.5-8.9-26.1-1.3-3.6-1.7-6.6.6-9.8 3.7-2.1 5.4-5.6 6.6-9.5 2-3.1 3.8-3 5.9.1 2.9 4.3 6 8.4 9.1 12.5 1.6 2.1 3.2 2.8 4-.7.7-2.8 1.7-5.5 2.4-8.3 3.7-14.5 13.1-24.4 25.8-31.6.2.2.3.4.5.6-1.2 3.6-5.1 4.7-6.9 7.8-.8 1.4-2.8 2.6-1.9 4.3 1.1 2.1 3 .3 4.3-.1 14.4-4.1 14.4-4.2 21.8 9.5 3.6 6.6 3.8 6.7 8.6 1 6.8-8.1 13.5-16.2 20-24.5 2-2.5 3.7-3.1 6.8-2.1 13.7 4.5 22.7 13.7 24.6 27.7 4.3 31 5.2 62.1-.5 93.1-.4 3.4-1.7 6.4-3.9 9z"/><path id="XMLID_112_" class="st6" d="M635.8 275.9c-.2 3.5-.9 7-.5 10.5.7 6.4-1.4 9.9-8.3 9.5l-71.6 1.2c-6.7-1-13.5-1.2-20.2-1.1-7.1-1.3-8.4-2.9-7.8-11.1.6-8.8 1.7-17.6 2.5-26.3.3-2.9.3-5.7.5-8.6 1.1-4.9 1.6-9.8 1.4-14.8 14.1-.1 28.2-.1 42.2-.3 21.4-.2 18.8 3.1 18.9-18.6.1-9.9.2-19.9.2-29.8 4.2 7.3 8.2 14.8 12.7 22 9 14.6 17.2 29.8 30.6 41.1 0 8.8-.3 17.5-.6 26.3z"/><path id="XMLID_251_" class="st7" d="M786.2 183.5c.8 9 1.6 18 2.3 26.9.3 3.5 2.1 3.4 4.7 2.6 4.3-1.3 8.6-2.7 13-3.9 4.1-1.2 7.4-.7 8.3 4.4-1.4 2.1-3 3.4-5.6 4.3-15.6 5.2-31.5 8.3-47.9 9.7-11.7 1-23.6.9-34.9 4.5-7.2-2.2-14.2.3-21.1 1.1-7.9.9-10.3-.5-11.1-8.6-1.9-18.5-4-37.1-5.9-55.6-.5-4.9 2.4-7.1 6.9-7.6 2.8-.3 5.9 1.1 8.2-1.6 6.7 1.4 13.1-1 19.7-1.1 1.1-.4 2.3-.7 3.4-1.1 16.3 0 32.3-2.8 48.5-4.3 5.7-.5 8.1 1.3 9.1 7 .9 5.4-.1 11 2.6 16.1-.9 2.4-.5 4.8-.2 7.2zm-41.3 10.7c-.2-4.6-1.8-7.8-5.8-7.6-3.6.2-6.8 2.2-6.7 6.7.1 4.2 2.4 6.8 6.6 6.5 3.6-.3 6.3-2.2 5.9-5.6z"/><circle id="XMLID_109_" class="st5" cx="160.8" cy="551.7" r="10.9"/><path id="XMLID_243_" class="st7" d="M593.3 186.5c-.1 9.9-.2 19.9-.2 29.8-.2 21.7 2.5 18.4-18.9 18.6-14.1.2-28.2.2-42.2.3-4.1-.1-8.3-.3-12.4-.4-4.6-.7-5.1-4-5.1-7.8.1-15.5 0-31 0-46.6.5-.8 1.6-1.8 1.5-2.5-1.7-9.7 2.8-18.1 5.4-26.9 1.8-6-.1-7.4-6.6-6.7-.1-2.2-.2-4.5-.2-6.7-.1-4.3 2.2-6.1 6.4-6.3 3.3-.2 6.9 1.4 9.9-1.4 2.2 1 4.5.7 6.7.7h45.3c9 0 10 1 10.3 9.7 0 .8.3 1.6.4 2.4-.9 14.7-.6 29.2-.3 43.8zm-39.4-35.2h19.3c2.2 0 4.3-.4 4.6-3.1.4-3.1-2-4.2-4.2-4.2-13.1-.2-26.1-.2-39.2-.1-2.5 0-4.6 1.5-4.7 4.1-.1 3.2 2.5 3.3 4.9 3.3 6.4.1 12.8 0 19.3 0zm-.2 64.8H535c-2.3 0-5.1-.3-5.4 2.8-.2 3 2 4.5 4.8 4.6 12.9.1 25.7.1 38.6 0 2.3 0 4.8-.8 4.7-3.8-.1-3.5-2.8-3.5-5.4-3.5-6.1-.1-12.3-.1-18.6-.1zm-4.2-13.7h-14.3c-2.5 0-5.4-.2-5.6 3.3-.2 3.4 2.6 4 5.2 4 10 .1 19.9.1 29.9.1 2.6 0 4.6-.8 4.5-3.8-.1-3.1-2.2-3.6-4.7-3.6h-15zm.4-43.6h-15.6c-2.2 0-4.5.2-4.7 2.9-.1 2.6 1.9 4.3 4.3 4.4 10.4.2 20.7.1 31.1-.1 2 0 4.2-1 4-3.8-.1-2.7-2-3.4-4.3-3.4h-14.8zm-8.2 15c-2.9 0-5.7-.1-8.6 0-1.8 0-3.3.8-3.4 2.8-.1 2.4 1.5 3.3 3.5 3.3 5.5.1 11.1 0 16.6 0 1.9 0 3.1-.7 3.2-2.8.1-2.3-1-3.4-3.3-3.4-2.7.1-5.3.1-8 .1z"/><path id="XMLID_102_" class="st6" d="M844.8 548.3c-4-17.7-8-35.4-12-53.2-.9-4.2-1.8-8.5-2.7-12.7 32.6 0 65.1 0 97.7.1-5.1 20.5-10.2 40.9-15.3 61.4-1.2 4.6-2.5 9.2-3.5 13.8-.8 4-2.3 5.8-6.9 5.7-16-.4-31.9-.3-47.9 0-4.5.1-6.3-1.5-6.9-5.6-.5-3.2-1.6-6.3-2.5-9.5z"/><path id="XMLID_238_" class="st6" d="M593.5 142.8c-.1-.8-.4-1.6-.4-2.4-.4-8.7-1.3-9.7-10.3-9.7h-45.3c-2.3 0-4.6.3-6.7-.7 6.6-14.2 15.6-20.5 28.1-19.9 6.2 5.3 13.3 7 21.4 8.3 11.6 1.8 19.8-1.3 26.2-10.6 14.4-.4 28.9 3.9 33.8 22.6 2.3 8.5 5.8 16.8 8.5 25.2 3.1 9.5 7 18 13.7 25.9 10.9 12.7 13.1 28.2 8.6 44.4-1.7 5.9-5.2 10.8-11 13.5-2.8-2.4-5.8-4.7-8.5-7.2-11.7-10.5-18-25.1-27.8-37 .3-11.6-1.8-22.7-5.2-33.6-2.3 9.9.3 19.3 1.6 28.9-8.7-10.6-20.4-19.4-18-35.9.9-5.5-1.9-10.8-8.7-11.8zm65.4 52.1c.1.1.1.3.2.4.1.1.2.1.3.1l-.5-.5c-4-8.9-17.7-10.5-26.1-1.9 9.6-1.8 18.1-2.1 26.1 1.9zm-26.1 1.9c7.8 3 16.1 4.5 23 9.6 1.1.8 2.5 3.2 4 1 1.1-1.6-.7-3-1.9-4.1-7.1-7-16.3-6.1-25.1-6.5z"/><path id="XMLID_98_" class="st8" d="M261.6 386.9c14.8.1 29.7.1 44.5.2 10.1.9 20.3 1.3 30.4-.2l38 .3c3.8 1.3 7.8 0 11.7.7 2.1 4.6 1.7 9.3.1 13.9-11.1 1.1-11.5 1.1-12 12.7-1 22.8-1.6 45.6-2.3 68.3-.7 22.6-1.5 45.2-2.1 67.7-.1 4.1-.6 7.5-5.8 7.6-5.6.2-5.7-3.8-5.9-7.6l-2.1-77.1c-.6-22.4-1.6-44.7-1.9-67.1-.1-5.3-3.1-4.3-6-4.3H232.4c-13.1 0-26.1-.1-39.2-.1-.1-4.8-.1-9.6-.2-14.4 9.2 0 18.5.2 27.7 0 5.3-.1 10.7 1.2 15.8-1 8.4 1 16.7.9 25.1.4z"/><path id="XMLID_234_" class="st9" d="M535.3 296c6.8 0 13.5.2 20.2 1.1-.4 4.2 1.2 8.2 1.1 12.2-.1 25.6 2.2 51 2.6 76.6.2 13.6 2 27.2 1.2 40.8-.1 2.1 2.5 4.3-.2 6.2-9.4-5.2-16.9-13-25.7-19-7.9-8.1-16.6-15.5-23.5-24.6-6.3-8.2-8.1-16.8-5.4-26.8 5.3-20 14.7-38.1 24.3-56.2 1.8-3.4 3.6-6.9 5.4-10.3zm-5.1 89.6c-1.6-2.4-2.2-3.5-2.9-4.4-5.9-7.5-6.5-15.4-3.6-24.4 2.7-8.5 6-16.6 9.5-24.8 2-4.7 3.9-9.4 5.9-14-.5-.2-1-.4-1.6-.6-6.9 14.2-15.3 27.7-20 42.9-3.2 9.8 2 20.1 12.7 25.3z"/><path id="XMLID_95_" class="st7" d="M188.6 193.7h105.1c9.8 0 13.9 4.1 13.9 14V329c0 9.8-3.2 12.9-12.9 12.9h-49.1c-2.2 0-4.6-.8-6.4 1.2-8.6 0-17.3-.1-25.9-.1v-13.7c24.1 0 48.1-.2 72.2.1 5.9.1 7.4-1.9 7.4-7.6-.2-35.3-.2-70.5 0-105.8 0-5.9-1.4-7.7-7.5-7.7-33 .2-66 0-99 0 1.5-4.7 2-9.6 2.2-14.6z"/><path id="XMLID_94_" class="st1" d="M188.6 193.7c-.2 5-.7 10-2.1 14.8-.8 1.4-1.7 2.7-2.5 4.1-4.7 5.3-8.9 11-6.7 18.6 2.2 7.7 2.7 16.4 10.9 21.1-.2 5.4-.6 10.8-4.7 15.1-4.5-2.4-5.8-6.6-6.6-11.2-1.5-8.8-1.6-17.7-2.3-26.5-.2-2.8-.1-6.3-4.4-6.1-3.6.2-5.5 2.7-5.8 6.2-.5 6.5.8 12.7 6.4 16.6 2.8 1.9 2.6 3.6 1.8 6.1-1.9 5.8-5.6 10.6-8.4 15.9h-31.9c-.9-3.9-2.4-7.5-5.2-10.4-5-5-8.8-10.9-12.2-17-5.1-16.4-4.6-31.9 7.4-45.5 10.9-7.6 23.3-7.1 35.7-6.9 5.1.1 10.3.6 15.4.7 2.2 0 4.6-.1 6.7-.9 7.1-2.6 7.1-2.7 8.5 5.3z"/><path id="XMLID_93_" class="st1" d="M732.3 34.7c-5.1-5.3-6.3-12.1-3.1-18.1 2.6-5 6.7-7.6 12.3-5.6 4.7 1.7 8.8 1 13-1.4 3.8-2.2 8.4-3.9 12.5-2.5 6.6 2.3 11.5.4 16.7-3.6 3.6-2.8 8.3-3.6 13-3.5 11.1.4 16.7 6.1 16.9 17.2.1 8-2.1 15.5-4.7 23-1.5 4.3-3.3 8.5-4.8 12.8-1.9 5.8-.1 7.9 5.8 7 1.9-.3 4.2-2.3 5.5.3 1.2 2.2.9 4.9-.7 7.1-4.3 6.2-10.6 8.6-17.7 8.7-6.8.1-11.7-3.2-15.1-9.1-1-1.8-.4-4.9-3.6-5.1-2.2-6.5-4.2-13.3-11.7-15.7-6.2-2-10.6-6.2-14.7-11-4.2-5-6.9-10.9-9.1-17.3-6.7 4.1-7.7 11-10.5 16.8z"/><path id="XMLID_92_" class="st8" d="M77.2 387.3v10.6c-4.3.8-10.8-2.9-11.4 5.5-9.8-2.4-19.8-.6-29.6-1-3.5-.1-2.3 2.8-2.4 4.6-1 26.7-1.8 53.4-2.7 80.2-.7 21.3-1.6 42.7-2.2 64-.1 4-1.2 6.2-5.7 6.2s-5.5-2.3-5.6-6.3c-.8-31.3-1.8-62.6-2.6-93.9-.5-16.2-.9-32.3-1.2-48.5-.1-4.3-.8-7.2-6.2-6.5-5.9.8-7.6-2.3-7.6-7.8s2.3-7.2 7.5-7.2c23.2.2 46.5.1 69.7.1z"/><path id="XMLID_91_" class="st10" d="M193.5 411.5c21.1-9.8 34.2-2.6 36.8 20.5.6 4.9.6 9.9.4 14.9-1 24.4 2.4 48.3 7 72.1.3 1.4.3 2.9.4 4.3-.1 1.6-.9 2.7-2.3 3.4-10 4.4-20.4 6-31.2 3.3-.1-2.7.1-5.4-.3-8-1.7-12.3-3.6-24.5-5.4-36.8 11.5-3.9 16.3-11.8 14.4-23.8-.3-2 0-4.1-.1-6.2-.2-7.5-3.8-11.4-11.3-12-2.3-.2-4.6 0-6.8-.1-1.6 0-2.7-.2-2.5-2.4 1-9.8-.7-19.5.9-29.2z"/><path id="XMLID_90_" class="st1" d="M386.2 401.9c1.7-4.6 2-9.3-.1-13.9 3.8-.8 7.7.6 11.4-.9 16 .1 31.9.2 47.9.1 5.3 0 8 1.2 8.1 7.3 0 6.2-2.6 8.1-8.2 7.9-4.6-.2-9.1.2-13.7-.1-3.9-.3-5 1.1-5 4.9-.5 21.5-1.3 43.1-2 64.6-.8 26.3-1.7 52.6-2.5 78.9-.1 3.9-.3 7.7-5.8 7.7-5.4 0-5.8-3.5-5.9-7.5-1.1-41-2.2-82-3.3-123.1-.2-7.2-.7-14.5-.7-21.7 0-3.1-1.1-3.8-4-3.8-5.4 0-10.8-.2-16.2-.4z"/><path id="XMLID_89_" class="st2" d="M534.5 414c8.8 6 16.4 13.8 25.7 19 3.2 8.1 1.5 16.7 2.1 25 1.3 17.7 1.6 35.5 2.4 53.3-1.8 2.3-5.1 3.8-3.5 7.6 1.6 3.9 5 3.5 8.2 3.5 1.2 0 2.4.1 3.6.2.9 2.3 1.7 4.7 2.6 7-2.2 1.1-3 3.3-3.9 5.3-9.3 6.1-18.8 10.7-30.5 7.7-2.1-.5-4.5 0-6.7 0V414z"/><path id="XMLID_88_" class="st11" d="M193.5 411.5c-1.6 9.7.1 19.4-.9 29.1-.2 2.2.9 2.4 2.5 2.4 2.3 0 4.6-.1 6.8.1 7.5.6 11.2 4.5 11.3 12 0 2.1-.3 4.2.1 6.2 2 12.1-2.8 19.9-14.4 23.8-6 .8-11.9 3.3-18.1 2.3 5.9-2.6 8-7.3 7.5-13.6-.2-2.9 0-5.8 0-8.7 0-9.8-1.3-11.6-10.8-15.4 5.4-3.9 5.7-9.4 5.7-15.2-.1-49.7-.1-99.5-.1-149.2 0-11.6-2.7-14.4-14.1-14.4-28 0-56 0-83.9.1 4.3-4.3 9.9-1.3 14.8-2.6h83.8c6.9 1.7 9.7 6.3 9.3 13.2-.2 2.6.2 5.3.3 8-1.1 1.5-.8 3.2-.8 4.8v89.3c0 1.4.4 2.8.6 4.2.1 4.8.1 9.6.2 14.4-.8 3.1-1 6.2.2 9.2z"/><path id="XMLID_87_" class="st12" d="M305.2 100.3c-2.6-.4-4.2 1.1-5.9 2.8-4.1 3.8-8.4 7.3-12.3 11.2-2.8 2.8-4.2 1.7-5.1-1.4-4.3-15.1-8.5-30.2-12.7-45.2-2.5-8.9-4.9-17.8-7.6-26.6-1.2-3.9-.1-4.9 3.8-3.8 19.8 5.7 39.6 11.3 59.3 16.9 5.5 1.6 11.1 3.2 16.6 4.8 3.6 1 5 2.9 1.6 5.4-7.9 5.8-13.8 13.7-21.4 19.8-15.7-12.2-31.5-24.4-47.8-37-.5 3.3.6 4 1.4 4.9 10 10.4 19.9 21 30.1 31.2 4.3 4.3 7.6 8 1.1 13-1.2.9-1.1 2.6-1.1 4z"/><path id="XMLID_86_" class="st6" d="M124.4 487.6h16c0 11.1-.1 22.3 0 33.4 0 1.1-1.3 4 2.2 2.8 1.1 1 2.4 1.5 3.9 1.4l32.6-.3c5.7 1.2 11.5.6 17.2.6 4.1 0 6.3 1.4 6.1 5.7-.6 3.2.7 6.8-1.5 9.8-3.2.1-6.5.2-9.7.3-6.3 0-12.5.1-18.8.1-3.5 0-7 0-10.5.1-6.1 0-12.3.1-18.4.1-13.4 0-26.8-.1-40.2-.1H91.4l-9.9.3c-2.9-.8-5.8-.4-8.7-.2-3-.2-6-.3-9-.5-2.1-3.6-1.2-7.6-1.2-11.4 0-4.1 3.7-3.7 6.2-4.5h13.5c12.9 1.3 25.9.4 38.9.4 3.4 0 3.4-2 3.4-4.5-.2-11.2-.2-22.4-.2-33.5z"/><path id="XMLID_85_" class="st13" d="M623.9 195c9.8 11.9 16.1 26.5 27.8 37 2.8 2.5 5.7 4.8 8.5 7.2-6.2 7.2-12.8 13.7-23.6 10.3-13.4-11.3-21.7-26.5-30.6-41.1-4.4-7.2-8.4-14.7-12.7-22-.3-14.6-.6-29.1.2-43.7 6.8 1 9.6 6.3 8.8 11.6-2.4 16.5 9.3 25.3 18 35.9 1.2 1.7 2.4 3.3 3.6 4.8z"/><path id="XMLID_84_" class="st1" d="M574.2 94.4c-5.8-7.5-12.9-13.9-17.5-22.4-3.5-6.5-5.5-13.2-5.1-20.7.6-12 7.5-19.7 19.3-20.9 9.9-1 19.5-2.9 29-6.1 7.1-2.5 12.6-.5 15.9 4.5 4.6 7 2.5 13-5.4 15.6-9.4.6-18.8-.1-28.5-1.1 2.3 7.9-.9 14.7-2.5 22.3 3-1.2 7.6 1.6 6.8-4.6-.1-1.1.9-1.8 2-2 7-1 13.9-3.3 21.1-2.4-.5 1.3-.9 2.6-1.4 3.8-.3 0-.7 0-1 .1-.6-.2-1.1-.4-1.7-.6-.4-.5-.7-.3-1 .2-4 .6-8 1.4-12 1.8-3.7.4-3.9 2.1-2.5 4.9 1.2 2.4 3.3 3.4 5.8 4v1.7c-2 .1-4.2-.4-5-1.9-2.4-4.3-6-3.2-9.6-2.7-2.9.4-5.5 2-8.8.2-2.1-1.2-3.8.9-4.1 3.3-.5 3.7 0 7.6 2.9 9.6 5.6 3.7 4.6 8.4 3.3 13.4z"/><path id="XMLID_83_" class="st13" d="M732.3 34.7c2.8-5.8 3.8-12.7 10.6-17C745 24.1 747.7 30 752 35c4 4.8 8.4 9 14.7 11 7.5 2.4 9.6 9.1 11.7 15.7 0 1-.3 2.2.1 3.1 4.2 8.3-.4 12.7-6.9 16.4-2.7 1.5-5.2 3.5-7.5 5.5-3.1 2.8-5.8 3.1-5.9-1.8-.3-10.4-4.3-15.2-15.4-13.5-4.8.8-6.4-3.7-8-7.9-1.7-4.5 2.7-11.2-4.6-13.8-.1-.1.3-1.9.6-2.9.9-3.9 1.9-7.9 1.5-12.1z"/><path id="XMLID_82_" class="st13" d="M574.2 94.4c1.3-5 2.3-9.7-3.2-13.4-2.9-2-3.4-6-2.9-9.6.3-2.4 2-4.4 4.1-3.3 3.2 1.8 5.9.2 8.8-.2 3.6-.5 7.1-1.6 9.6 2.7.8 1.5 3 2 5 1.9 8.3.4 10.9-1.4 13.6-9.4 1.3-.3 2.2.1 2.8 1.2.6 2.5 2.7 3 4.8 3.4 1.2 3.1 2.4 5.7-.9 8.8-1.7 1.6-.1 5.1.2 7.8 1 9.1-.6 11.5-9.5 13.2-7.4 1.4-2.2 7-3.6 10.3-11.7 5.5-23.2 12.6-35.9 2.3 7.2-2.3 7.2-2.3 7.1-15.7z"/><path id="XMLID_217_" class="st13" d="M464.8 228.6c-1.8-18.4-9.4-34.1-21.9-47.5-8.1-8.7-17.5-15.8-28.9-19.9-7.6-2.7-8.1-2.4-8.1 5.4 0 7.7-2 14.7-5.9 21.3-2.3 3.8-5.2 7-9.2 9-6.3 3.2-13.4 2.2-18.5-2.5-4.3-4-5.4-10.1-2.5-16.7 4.4-10 12.2-16.6 21.7-21.3 2-1 4.1-1.9 6.6-3-7.7-11.4-18.4-16.8-31.3-18.3-7.6-.9-15.3.3-22.9-1.1-8.4-1.6-15.8-4.6-20.9-12.2.8-.1 1.6-.4 2-.1 9.5 8.1 20.6 8.5 32.2 7.7 18.9-1.4 34.9 3.7 45 21.1.8 1.4 1.7 2.1 3.4 2.2 17.4.7 29.8 10.7 40.6 22.6 13.7 14.9 20.7 32.6 18.6 53.3zM402.7 168c-.1-.8-.1-2.8-.4-4.9-.2-2.3-1.3-3.3-3.8-2.4-10.8 3.7-19.6 9.9-24.6 20.4-3 6.3-.5 11.5 6.1 13.8 6 2.1 11 0 15.1-4.5 5.4-6 7.7-13.1 7.6-22.4z"/><path id="XMLID_79_" class="st1" d="M200.8 541.1c2.1-3 .9-6.5 1.5-9.8 1 0 2-.2 2.4-1.3 10.8 2.7 21.1 1.1 31.2-3.3 1.5-.6 2.2-1.8 2.3-3.4 9.3 5.5 19.1 9.4 30.3 8 3-.4 6.2-.1 9.2.3 4.6.7 7.7 3 6.6 8.3-4.5 3.1-9.5 4.9-14.7 6.3-15 4-30.4 3-45.6 3.7-9.3.5-18.3 1.3-23.2-8.8z"/><path id="XMLID_78_" class="st14" d="M927.9 482.5c-32.6 0-65.1 0-97.7-.1-3.8-13.6-3.8-13.5 10.1-13.6 3.9 0 7.8-.1 11.7-.2h80c-1.6 5.3-2.9 9.6-4.1 13.9z"/><path id="XMLID_77_" class="st1" d="M82.2 525.1H68.7c-.9-35.4-1.8-70.8-2.7-106.1-.1-5.2-.1-10.3-.2-15.5.6-8.4 7.1-4.7 11.4-5.5.1 13.5.2 26.9.1 40.4 0 4.6.7 8.6 5.6 11.4-8.1 1.9-10.9 7-10.4 14.4.3 4.1-.1 8.3.1 12.4.3 7.2 3.2 10.2 10.6 11.1-.3 12.5-.7 24.9-1 37.4z"/><path id="XMLID_76_" class="st1" d="M534.5 542.7c2.2 0 4.6-.5 6.7 0 11.6 3 21.2-1.7 30.5-7.7 2.2 1.7 4.6 2.7 7.5 2.6 1.1 1.3 2.5 1 3.9.7 5.9.2 11.7.5 17.6.7 1.6 3 .4 6.3.9 9.4 0 .5-.1 1-.1 1.6l.3-.1-.3 6c-1.8.5-3.6 1.2-5.4 1.4-22.5 1.8-45.1 3.5-67.5-1.5-.2-.3-.4-.5-.7-.7-.3-.5-.5-1-.8-1.5-.5-5.7 2.3-9.1 7.4-10.9z"/><path id="XMLID_75_" class="st13" d="M336.5 387c-10.1 1.4-20.3 1.1-30.4.2-3.3-6.5-1.5-13.4-1.6-20.1-.3-17.8-1.1-15 15.2-15.2h13c3.3 0 5.2 1.2 4.9 4.7v6.8c0 4 0 8-.1 12 .2 2.2-.9 4.7 1.4 6.5-.7 1.7-1.5 3.4-2.4 5.1z"/><path id="XMLID_74_" class="st7" d="M113.5 268.3H99.8v-61.4c0-10.2 3-13.3 13.3-13.1 3.1.1 6.7-1.6 9.3 1.6-12 13.6-12.5 29.1-7.4 45.5-2.1 1.5-1.4 3.7-1.4 5.7-.2 7.2-.1 14.5-.1 21.7z"/><path id="XMLID_73_" class="st11" d="M397.6 387.1c-3.7 1.4-7.7.1-11.4.9-3.9-.7-7.9.6-11.7-.7-2.5-9.2-5.1-18.4-7.6-27.6 12.5-.4 25.1-.9 37.6.2-2.3 9.1-4.6 18.2-6.9 27.2z"/><path id="XMLID_72_" class="st13" d="M701.2 114.4c-1.1 3.9-2.9 7.3-6.6 9.5-2.8-8.1-9.1-13-15.8-17.6-6.5-4.4-7.8-12.6-3-18.8 2.5-3.3 3.2-6.4 1.7-10.3-1.2-3.1-1.7-6.3-.6-11.6 8.6 17.2 16.4 33 24.3 48.8z"/><path id="XMLID_71_" class="st7" d="M305.2 100.3c0-1.5-.2-3.1 1.1-4.1 6.5-5 3.2-8.6-1.1-13C295 73 285.1 62.4 275.1 52c-.8-.9-2-1.6-1.4-4.9 16.3 12.7 32.1 24.9 47.8 37 0 6.4 0 12.8-.1 19.3 0 7.4-.1 7.5-6.6 3.5-3.3-2-6.4-4.4-9.6-6.6z"/><path id="XMLID_70_" class="st2" d="M213.3 343.1c8.6 0 17.3.1 25.9.1 0 5.1 0 10.2.1 15.3-4.3 1.9-9 3-12.6 6.2-3.2.8-6.5 1.4-9.5 2.6-3.5 1.4-4.4.2-4.3-3.1.2-7.1.3-14.1.4-21.1z"/><path id="XMLID_69_" class="st14" d="M404.5 359.9c-12.5-1.1-25.1-.7-37.6-.2-4.1.6-7.2.5-7.2-5.2 0-5.6 3.1-5.7 7.2-5.7 5.9.1 11.9 0 17.8 0 1.4.6 2.8.8 4.2.1 5.1 0 10.2 0 15.3-.1 3.9-.1 7.1-.2 7.2 5.5.2 5.7-2.9 5.8-6.9 5.6z"/><path id="XMLID_68_" class="st15" d="M609.2 56.6c-7.2-.9-14.1 1.5-21.1 2.4-1.1.2-2.1.8-2 2 .8 6.1-3.8 3.4-6.8 4.6 1.6-7.6 4.8-14.3 2.5-22.3 9.7 1.1 19.1 1.8 28.5 1.1 1.2 3.3 2.5 6.6 3.7 9.9-1.3.7-2.6 1.4-4 2.1-.2 0-.5.1-.8.2z"/><path id="XMLID_67_" class="st7" d="M261.6 386.9c-8.3.4-16.7.6-25-.1 3.7-5.4 3.5-10.8.4-16.4 8.1 0 16.2-.1 24.3-.1 5.6 5.1 5.7 8.4.3 16.6z"/><path id="XMLID_66_" class="st13" d="M514.7 144.4c6.6-.7 8.4.7 6.6 6.7-2.6 8.8-7.2 17.2-5.4 26.9.1.7-.9 1.7-1.5 2.5-5-5-7.9-10.9-8.7-17.9-.8-7.9 2.1-14.1 9-18.2z"/><path id="XMLID_65_" class="st4" d="M383.6 334.6c-8.2-.7-10.6-3.8-9.2-11.7 1.1-5.8 4.2-11.3 2.2-17.7 11.7 4.4 17.4 20.1 10.7 28.3-1.2.3-2.4.7-3.7 1.1z"/><path id="XMLID_63_" class="st13" d="M261.2 370.4c-8.1 0-16.2.1-24.3.1-3.4-2-6.8-3.9-10.3-5.9 3.7-3.2 8.3-4.2 12.6-6.2 11.9-1 19.6 3.1 22 12z"/><path id="XMLID_62_" class="st4" d="M392.5 336.8c-.5-13.3 11.6-12.3 19.3-17.3 1.9 7.4.3 13.3-4.4 18.5-3.7 4-8.1 3.2-12.6 1.4-.8-.9-1.6-1.8-2.3-2.6z"/><path id="XMLID_61_" class="st4" d="M370.9 342.1h-7.5c-2.8 0-5-1.3-5.9-3.8-2.2-6.2-1.7-12.4-.3-20.5 5 8.9 17 10 15.4 21.4-.6.9-1.1 1.9-1.7 2.9z"/><path id="XMLID_60_" class="st14" d="M567 110.1c12.7 10.3 24.2 3.2 35.9-2.3 1.3 0 2.5-.1 3.8-.1-6.4 9.3-14.7 12.4-26.2 10.6-8.1-1.3-15.2-3-21.4-8.3 2.5-2.1 5.2-.1 7.9.1z"/><path id="XMLID_59_" class="st15" d="M337.7 363.3v-6.8c9.7 2.4 13.7 7 12.4 15-.9 6.1-4.5 9.9-11 10.3-2.4-1.8-1.2-4.3-1.4-6.5 4.3.8 6.1-1.8 6.4-5.5.2-4-2.1-6.3-6.4-6.5z"/><path id="XMLID_58_" class="st8" d="M370.9 342.1c.6-1 1.1-1.9 1.7-2.9 3.5.9 6.7-.8 10.1-.9 3.8-.1 1.1-2.3 1-3.7 1.2-.4 2.5-.8 3.7-1.1 1 2.2.8 6.2 5.1 3.3.8.9 1.5 1.7 2.3 2.6-2.8 2.7-6.5 4.7-5.8 9.5-1.4.7-2.8.4-4.2-.1 1.2-5.3 0-8-6.1-6-2.6.8-5.4.8-7.8-.7z"/><path id="XMLID_57_" class="st11" d="M519.5 234.9c4.1.1 8.3.3 12.4.4.2 5-.3 9.9-1.4 14.8-5.5-3.8-10.1-8.2-11-15.2z"/><path id="XMLID_56_" class="st1" d="M610.1 56.4c1.3-.7 2.6-1.4 4-2.1.2 0 .4.1.6.1 7.8-.8 7.8-.8 6.7 7.3h-1.1c.9-4.6-2-4.1-4.9-3.7-1.8-.3-4 .6-5.3-1.6z"/><path id="XMLID_55_" class="st8" d="M620.2 61.7h1.1c0 3.2-2.1 4.8-4.7 6-2.1-.4-4.2-.9-4.8-3.4.5 0 .9-.1 1.4-.1 3.9 3.3 5.4.1 7-2.5z"/><path id="XMLID_54_" class="st3" d="M748.4 86.4c.4-.7 1.3-1.3 1.7-.6.5.9-.7.8-1.3 1.1-.1-.1-.2-.3-.4-.5z"/><path id="XMLID_52_" class="st10" d="M564.7 511.3c-.7-17.8-1.1-35.6-2.4-53.3-.6-8.3 1.1-16.9-2.1-25 2.7-1.9.1-4.2.2-6.2.9-13.6-.9-27.2-1.2-40.8-.4-25.5-2.7-51-2.6-76.6 0-4.1-1.6-8.1-1.1-12.2l71.6-1.2c-1.6 38.8-6.4 77.3-10.6 115.8 0 2.7-.4 5.3-.7 8-1.2 13.1-3.9 26.1-4.2 39.3v1.1c-3.3 10.3-3 21.1-4.9 31.5-1.1 6.5-1.8 13.1-2.7 19.6h-39.3z"/><path id="XMLID_51_" class="st15" d="M723.4 353.3c16.7 1.8 33.4 1.1 50.1.5 2.5-.1 4.9-.3 7.4-.4 3.4 21.3 1.4 42.7.6 64-.1 2.7-.3 5.3-.4 8-1.7 4.6-3.5 9.2-5 13.8-1.9 5.5-6.4 5.4-10.6 4.7-4.7-.8-4.3-4.5-3.3-8.1.5-2 .8-4 1.2-6 5.3-16.3-1.3-31.2-5.4-46.3.6 14.1-1.6 28-1.4 42-2 4.7-4.6 9.1-7.9 13-4.6 5.3-8.2 5.6-13.7 1.6 5.1-9.9 5.5-20.3 2.2-30.8-5.9-18.4-10.1-37.1-13.8-56z"/><path id="XMLID_187_" class="st1" d="M763.3 429.8c-.4 2-.6 4-1.2 6-1 3.7-1.4 7.3 3.3 8.1 4.2.7 8.7.8 10.6-4.7 1.6-4.6 3.4-9.2 5-13.8 7.6 3.5 7.9 4.3 4.5 11.3-5 10.2-9.9 20.4-14.8 30.7-2.1 4.3-5.3 7.3-9.7 9.1-5.7 2.3-8.9.2-8.8-5.9.2-7.6 3.2-14.5 5.3-21.6.4-1.3.7-2.7 1.1-4.4-3.5-.1-4.5 2.5-5.9 4.2-7.7 8.7-16.6 15.6-27.8 18.9-3.3 1-7.3 2.6-9.6-1.1-2.2-3.4.1-6.7 2.2-9.7 4.7-6.7 10.9-11.9 17.3-16.8 5.4 4 9.1 3.7 13.7-1.6 3.4-3.9 5.9-8.3 7.9-13 2.3 1.4 4.6 2.8 6.9 4.3zm-3.6 13.5c-.2-.5-.3-.8-.4-1.1-.4.3-.8.5-1 .9-.1.2.1.6.2.9.4-.3.8-.5 1.2-.7z"/><path id="XMLID_48_" class="st1" d="M644.3 445.7c5.2 1.1 10.7.1 15.7 2.1 0 3.1 0 6.2-.1 9.3-.5 18.6-.9 37.3-7.9 55-7.5.4-11.7-3.5-9.8-10.9 2.9-10.8.8-20.4-3.9-29.9 5.5-7.8 5-16.9 6-25.6z"/><path id="XMLID_47_" class="st1" d="M564.7 511.3H604c2.2 1.9 5.6 3.1 4.4 7.1-1.6 5.6-6.6 3.6-10.3 4.3H573c-1.2-.1-2.4-.2-3.6-.2-3.3 0-6.6.4-8.2-3.5-1.5-3.9 1.7-5.5 3.5-7.7z"/><path id="XMLID_46_" class="st9" d="M611.7 459c.3-13.2 3-26.2 4.2-39.3.2-2.7.6-5.3.7-8 5.8 7 11.7 14 17.5 21-3.3 4.4-6.3 9.1-10.1 13-4.3 4.4-6.4 10.6-12.3 13.3z"/><path id="XMLID_45_" class="st1" d="M611.7 459c5.9-2.7 8-8.9 12.2-13.2 3.8-3.9 6.8-8.7 10.1-13 7.7 2.6 8.4 3.6 6 9.9-1.9.9-2.2 3-3.5 4.5-3.4 3-6 6.7-8.6 10.4-1.3 1.5-2.7 3.1-4 4.6-2 2.3-3.6 5.1-7.5 4.4-3.6-.7-3.8-3.9-4.8-6.5 0-.4.1-.8.1-1.1z"/><path id="XMLID_44_" class="st12" d="M852 396.8c2.6.7 5.1 1.4 7.7 2 10.7 2.6 10.6 2.6 12.3 13.6.6 3.6 1.3 7.2.9 11.3-7.2-5-14.1-9.8-21-14.5 0-4.2 0-8.3.1-12.4z"/><path id="XMLID_43_" class="st12" d="M852 433.4c6.7 2.5 13.4 5.4 20.9 4.5 2.2-.3 2.7.9 3 2.8.8 4.3 1.2 8.5.9 13.8-8.2-5.8-16.4-10.2-24.8-14.4v-6.7z"/><path id="XMLID_42_" class="st16" d="M652.1 512c6.9-17.7 7.4-36.3 7.9-55 .1-3.1.1-6.2.1-9.3 2.6-.3 3.8.7 3.8 3.5-.4 18.5-.8 36.9-5 55-.8 3.5-2.6 6.1-6.8 5.8z"/><path id="XMLID_41_" class="st12" d="M636.6 447.1c1.2-1.4 1.5-3.6 3.5-4.5 1.4 1 2.9 2 4.3 3-1 8.8-.6 17.8-5.8 25.6-4.1-2.7-6-6.5-5.8-11.3 2.2-3.9 3.5-8.2 3.8-12.8z"/><path id="XMLID_40_" class="st17" d="M600.6 539.1c-5.9-.2-11.7-.5-17.6-.7-.9-2.6-2.1-3-3.9-.7-2.8.1-5.3-.9-7.5-2.6 1-2 1.7-4.2 3.9-5.3h20.8c2.6 2.5 4 5.7 4.3 9.3z"/><path id="XMLID_39_" class="st12" d="M851.9 368c1.2.4 2.4 1.2 3.5 1.1 9.6-1.1 10.4 5.7 11.4 12.4.3 2 1.4 3.9.7 6.5-5.4-3.6-10.7-7.2-16-10.7.2-3.2.3-6.3.4-9.3z"/><path id="XMLID_38_" class="st13" d="M596.4 529.7h-20.8c-.9-2.3-1.7-4.7-2.6-7h25.1c-.5 2.3-1.1 4.7-1.7 7z"/><path id="XMLID_37_" class="st12" d="M878.2 468.7H852V464c7.8.9 15.6 2.2 23.5.8 3.8-.7 2.4 2.2 2.7 3.9z"/><path id="XMLID_36_" class="st13" d="M636.6 447.1c-.3 4.6-1.6 8.9-3.9 12.8-1.6-.8-3.2-1.6-4.7-2.4 2.6-3.7 5.1-7.4 8.6-10.4z"/><path id="XMLID_35_" class="st7" d="m853 344.5 4.2 9.6c-.3.3-.6.5-.8.8-2.1-1.1-4.1-2.3-5.5-4.4 2.1-1.5-.1-4.5 2.1-6z"/><path id="XMLID_34_" class="st16" d="M601.4 550c0-.5.1-1 .1-1.6 0 .6-.1 1.1-.1 1.6z"/><path id="XMLID_33_" class="st10" d="m179 525-32.6.3c-1.5 0-2.8-.5-3.9-1.4-1.3-12.1 1.7-24.1.9-36.1h31.2c0 6.4-.4 12.7 0 19.1.4 6.2.4 12.7 4.4 18.1z"/><path id="XMLID_32_" class="st6" d="M104.8 281.5c19.4-2.6 38.7-4.5 58.2-2 5.9.8 10.2 4.9 10.2 10.5.2 30.2 4 60.4 2.2 90.7-.7 11.3-.6 22.7-3.9 34-.6-4.9-1.5-9.8-1.7-14.7-.9-18.6-2.1-37.3-1.2-55.9.8-16.3 2.4-32.6 2.3-49-.1-9.9-2.4-11.5-12.4-10.9-18 1.1-35.9.3-53.7-2.7z"/><path id="XMLID_31_" class="st6" d="M109.4 447.3c-4.9.5-9.8 1.1-14.8 1.3-6.7.3-11.8-4-12.3-10.5-1.3-17.3-2.4-34.7 0-52 .3-2.5.5-4.9 2.1-7.4 1.9 5.6 2.7 11.1 2.8 16.6.2 13.2.6 26.5-.9 39.7-.8 6.7 2.3 9.8 9.2 10.3 4.7.3 9.4.9 14.1 1.3-.1.3-.2.5-.2.7z"/><path id="XMLID_30_" class="st17" d="M894.9 407.5c-.5.1-.9.1-1.4.2.1-.5.3-.9.4-1.4.3.4.7.8 1 1.2z"/><path id="XMLID_29_" class="st7" d="M857.2 354.1c.2.4.3.8.5 1.3-.4-.1-.9-.3-1.3-.4.2-.4.5-.7.8-.9z"/><path id="XMLID_28_" class="st17" d="M925.6 350.8c-.3.3-.7.8-.8.7-.8-.4-.4-1-.1-1.5.3.2.6.5.9.8z"/><path id="XMLID_27_" class="st6" d="M786.2 183.5c-.4-2.4-.7-4.8 0-7.2.4.1.8.1 1.2.2 11.7 1.5 12 1.2 12.2-11.2.1-7.2-2-14.3-1.4-21.6.3-3.9.7-7.8 2.5-12.5 3.7 5.9 3.9 12.2 3.2 17.4-1.4 10.4-2.6 20.4.1 30.7.9 3.4-1.2 4.5-4.1 4.5-4.6 0-9.1-.2-13.7-.3z"/><path id="XMLID_26_" class="st11" d="M726 157.5c-1.1.4-2.3.7-3.4 1.1-.3-7.1 2.1-13.6 5.3-19.9 1 6.4-1.7 12.5-1.9 18.8z"/><path id="XMLID_25_" class="st17" d="M744.9 194.2c.4 3.5-2.3 5.3-5.9 5.6-4.2.3-6.5-2.3-6.6-6.5-.1-4.5 3.1-6.5 6.7-6.7 4-.2 5.6 2.9 5.8 7.6z"/><path id="XMLID_24_" class="st2" d="M553.9 151.3h-19.3c-2.4 0-5-.1-4.9-3.3.1-2.6 2.2-4.1 4.7-4.1 13.1-.1 26.1-.1 39.2.1 2.3 0 4.6 1.1 4.2 4.2-.3 2.7-2.4 3.1-4.6 3.1h-19.3z"/><path id="XMLID_23_" class="st2" d="M553.7 216.1h18.7c2.6 0 5.3 0 5.4 3.5.1 3.1-2.5 3.8-4.7 3.8-12.9.1-25.7.1-38.6 0-2.7 0-5-1.6-4.8-4.6.3-3.1 3.1-2.8 5.4-2.8 6.2.1 12.4.1 18.6.1z"/><path id="XMLID_22_" class="st2" d="M549.5 202.4h14.9c2.5 0 4.7.6 4.7 3.6.1 3-1.9 3.8-4.5 3.8-10 0-19.9.1-29.9-.1-2.5 0-5.3-.6-5.2-4 .2-3.5 3-3.3 5.6-3.3h14.4z"/><path id="XMLID_21_" class="st2" d="M549.9 158.8h14.9c2.3 0 4.1.8 4.3 3.4.2 2.8-2 3.8-4 3.8-10.4.2-20.7.2-31.1.1-2.5 0-4.5-1.7-4.3-4.4.1-2.7 2.5-2.9 4.7-2.9h15.5z"/><path id="XMLID_20_" class="st2" d="M541.7 173.8h8c2.3 0 3.4 1 3.3 3.4-.1 2.1-1.3 2.8-3.2 2.8h-16.6c-2.1 0-3.7-1-3.5-3.3.1-2 1.6-2.8 3.4-2.8 2.9-.2 5.7-.1 8.6-.1z"/><path id="XMLID_19_" class="st14" d="M623.9 195c-1.2-1.6-2.4-3.2-3.7-4.8-1.3-9.6-3.8-19-1.6-28.9 3.5 11 5.6 22.2 5.3 33.7z"/><path id="XMLID_18_" class="st14" d="M632.8 196.8c8.8.4 18-.5 25 6.5 1.2 1.1 3 2.6 1.9 4.1-1.5 2.2-2.9-.2-4-1-6.8-5.1-15.1-6.7-22.9-9.6z"/><path id="XMLID_17_" class="st14" d="M658.9 194.9c-8-4.1-16.5-3.8-26.1-1.9 8.4-8.5 22.1-6.9 26.1 1.9z"/><path id="XMLID_16_" class="st14" d="m658.9 194.9.5.5c-.1 0-.3 0-.3-.1-.1 0-.1-.2-.2-.4z"/><path id="XMLID_15_" class="st4" d="M226.6 364.6c3.4 2 6.8 3.9 10.3 5.9 3.1 5.5 3.3 11-.4 16.4-5.2 2.1-10.6.8-15.8 1-9.2.2-18.5 0-27.7 0-.2-1.4-.6-2.8-.6-4.2v-89.3c0-1.6-.3-3.3.8-4.8 6.7 1 10.6 5.6 14.1 10.9 5.9 8.9 5.7 19 6.1 29v13.7c-.1 7-.2 14-.4 21-.1 3.3.7 4.5 4.3 3.1 2.9-1.3 6.2-1.8 9.3-2.7z"/><path id="XMLID_14_" class="st1" d="M530.2 385.6c-10.6-5.2-15.8-15.5-12.7-25.4 4.7-15.2 13.1-28.7 20-42.9.5.2 1 .4 1.6.6-2 4.7-3.9 9.4-5.9 14-3.5 8.1-6.7 16.3-9.5 24.8-2.9 9-2.3 17 3.6 24.4.7 1 1.3 2.1 2.9 4.5z"/><path id="XMLID_13_" class="st12" d="M213.3 329.4c-.5-10-.3-20.1-6.1-29-3.5-5.3-7.3-9.9-14.1-10.9-.1-2.7-.5-5.3-.3-8 .4-6.9-2.4-11.5-9.3-13.2v-.9c4.1-4.2 4.4-9.6 4.7-15.1 1.3-3.9-.2-7.6-1.1-11.3-.7-2.8-2.9-6-1.4-8.3 5.1-7.4 1.2-13.6-1.7-20.1.8-1.4 1.7-2.7 2.5-4.1 33 .1 66 .3 99 0 6.1 0 7.5 1.8 7.5 7.7-.3 35.3-.2 70.5 0 105.8 0 5.6-1.5 7.6-7.4 7.6-24.2-.3-48.2-.2-72.3-.2z"/><path id="XMLID_12_" class="st15" d="M183.5 267.4v.9h-19.3c2.8-5.3 6.4-10.1 8.4-15.9.9-2.5 1-4.2-1.8-6.1-5.6-3.9-6.9-10.1-6.4-16.6.3-3.5 2.2-6 5.8-6.2 4.3-.3 4.2 3.3 4.4 6.1.7 8.8.8 17.7 2.3 26.5.9 4.7 2.1 8.9 6.6 11.3z"/><path id="XMLID_11_" class="st12" d="M113.5 268.3v-21.7c0-2-.6-4.2 1.4-5.7 3.4 6.2 7.1 12 12.2 17 2.9 2.8 4.4 6.5 5.2 10.4h-18.8z"/><path id="XMLID_10_" class="st13" d="M184 212.6c2.9 6.5 6.7 12.7 1.7 20.1-1.6 2.3.7 5.5 1.4 8.3 1 3.7 2.4 7.4 1.1 11.3-8.3-4.6-8.7-13.3-10.9-21.1-2.2-7.7 2-13.3 6.7-18.6z"/><path id="XMLID_9_" class="st2" d="M605.2 59.9c.6.2 1.1.4 1.7.6-.8 8.1-2.5 9.5-11.4 10.2-2.4-.6-4.6-1.6-5.8-4-1.4-2.8-1.2-4.5 2.5-4.9 4-.4 8-1.2 12-1.8l.5.1.5-.2z"/><path id="XMLID_8_" class="st8" d="M595.4 70.7c8.9-.7 10.6-2.2 11.4-10.2.3-.1.7-.1 1-.1l.1.1c0 1 .2 1.9 1.2 2.5-2.7 8-5.3 9.8-13.6 9.4-.1-.6-.1-1.1-.1-1.7z"/><path id="XMLID_7_" class="st8" d="M610.1 56.4c1.3 2.2 3.5 1.3 5.3 1.6-.9.4-1.8.8-2.7 1.1-1.6.4-3.2.9-4.8 1.3l-.1-.1c.5-1.3.9-2.6 1.4-3.8.3 0 .6-.1.9-.1z"/><path id="XMLID_6_" class="st8" d="m605.2 59.9-.4.3-.5-.1c.2-.6.5-.7.9-.2z"/><path id="XMLID_5_" class="st1" d="M607.9 60.5c1.6-.4 3.2-.9 4.8-1.3.2 1.6.4 3.3.6 4.9-.5 0-.9.1-1.4.1-.6-1.2-1.6-1.5-2.8-1.2-1-.6-1.2-1.5-1.2-2.5z"/><path id="XMLID_4_" class="st17" d="M579.2 537.6c1.8-2.3 3-1.8 3.9.7-1.5.3-2.9.7-3.9-.7z"/><path id="XMLID_3_" class="st7" d="M613.3 64.1c-.2-1.6-.4-3.3-.6-4.9.9-.4 1.8-.8 2.7-1.1 2.9-.5 5.8-.9 4.9 3.7-1.7 2.5-3.2 5.7-7 2.3z"/><path id="XMLID_2_" class="st2" d="M763.3 429.8c-2.3-1.4-4.6-2.9-6.9-4.3-.2-14 2-27.9 1.4-42 4.2 15.1 10.8 30 5.5 46.3z"/><path id="XMLID_1_" class="st2" d="m759.7 443.3-1.2.6c-.1-.3-.4-.7-.2-.9.2-.4.7-.6 1-.9.1.4.2.7.4 1.2z"/></g></svg>